name C:/MyDriveSym/Projects/mobilecap/Data\Session20210813_0002\mocap\ForceDataProcessed\walking3_forces.mot
datacolumns 19
datarows 27
range 0.00000000 0.01300000
endheader 
time	R_ground_force_vx	R_ground_force_vy	R_ground_force_vz	R_ground_force_px	R_ground_force_py	R_ground_force_pz	R_ground_torque_x	R_ground_torque_y	R_ground_torque_z	L_ground_force_vx	L_ground_force_vy	L_ground_force_vz	L_ground_force_px	L_ground_force_py	L_ground_force_pz	L_ground_torque_x	L_ground_torque_y	L_ground_torque_z	
          0.00000000	       -115.36078300	        612.30494800	         -1.72465800	          0.27045800	          0.00600000	         -0.18288100	          0.00000000	         -0.81838800	          0.00000000	          0.00000000	          0.00000000	          0.00000000	          0.79971700	          0.00000000	         -0.21190000	          0.00000000	          0.00000000	          0.00000000	
          0.00050000	       -115.52038200	        613.07973400	         -1.88645500	          0.27045800	          0.00600000	         -0.18288100	          0.00000000	         -0.81089600	          0.00000000	          0.00000000	          0.00000000	          0.00000000	          0.79971700	          0.00000000	         -0.21190000	          0.00000000	          0.00000000	          0.00000000	
          0.00100000	       -115.67982800	        613.85806200	         -2.04856900	          0.27045800	          0.00600000	         -0.18288100	          0.00000000	         -0.80331200	          0.00000000	          0.00000000	          0.00000000	          0.00000000	          0.79971700	          0.00000000	         -0.21190000	          0.00000000	          0.00000000	          0.00000000	
          0.00150000	       -115.83909300	        614.63987400	         -2.21098100	          0.27045800	          0.00600000	         -0.18288100	          0.00000000	         -0.79563500	          0.00000000	          0.00000000	          0.00000000	          0.00000000	          0.79971700	          0.00000000	         -0.21190000	          0.00000000	          0.00000000	          0.00000000	
          0.00200000	       -115.99815000	        615.42511000	         -2.37367000	          0.27063300	          0.00600000	         -0.18282300	          0.00000000	         -0.78786500	          0.00000000	          0.00000000	          0.00000000	          0.00000000	          0.79971700	          0.00000000	         -0.21190000	          0.00000000	          0.00000000	          0.00000000	
          0.00250000	       -116.15697000	        616.21371000	         -2.53661700	          0.27080900	          0.00600000	         -0.18276400	          0.00000000	         -0.78000300	          0.00000000	          0.00000000	          0.00000000	          0.00000000	          0.79971700	          0.00000000	         -0.21190000	          0.00000000	          0.00000000	          0.00000000	
          0.00300000	       -116.31552500	        617.00561100	         -2.69980200	          0.27098500	          0.00600000	         -0.18270500	          0.00000000	         -0.77204900	          0.00000000	          0.00000000	          0.00000000	          0.00000000	          0.79971700	          0.00000000	         -0.21190000	          0.00000000	          0.00000000	          0.00000000	
          0.00350000	       -116.47378700	        617.80075300	         -2.86320400	          0.27116200	          0.00600000	         -0.18264600	          0.00000000	         -0.76400200	          0.00000000	          0.00000000	          0.00000000	          0.00000000	          0.79971700	          0.00000000	         -0.21190000	          0.00000000	          0.00000000	          0.00000000	
          0.00400000	       -116.63172700	        618.59907000	         -3.02680400	          0.27133900	          0.00600000	         -0.18258600	          0.00000000	         -0.75586400	          0.00000000	          0.00000000	          0.00000000	          0.00000000	          0.79971700	          0.00000000	         -0.21190000	          0.00000000	          0.00000000	          0.00000000	
          0.00450000	       -116.78931700	        619.40049900	         -3.19058100	          0.27151700	          0.00600000	         -0.18252700	          0.00000000	         -0.74763300	          0.00000000	          0.00000000	          0.00000000	          0.00000000	          0.79971700	          0.00000000	         -0.21190000	          0.00000000	          0.00000000	          0.00000000	
          0.00500000	       -116.94652700	        620.20497500	         -3.35451400	          0.27169500	          0.00600000	         -0.18246800	          0.00000000	         -0.73931000	          0.00000000	          0.00000000	          0.00000000	          0.00000000	          0.79971700	          0.00000000	         -0.21190000	          0.00000000	          0.00000000	          0.00000000	
          0.00550000	       -117.10332800	        621.01243300	         -3.51858400	          0.27187400	          0.00600000	         -0.18240800	          0.00000000	         -0.73089600	          0.00000000	          0.00000000	          0.00000000	          0.00000000	          0.79971700	          0.00000000	         -0.21190000	          0.00000000	          0.00000000	          0.00000000	
          0.00600000	       -117.25969200	        621.82280600	         -3.68277000	          0.27205300	          0.00600000	         -0.18234900	          0.00000000	         -0.72239000	          0.00000000	          0.00000000	          0.00000000	          0.00000000	          0.79971700	          0.00000000	         -0.21190000	          0.00000000	          0.00000000	          0.00000000	
          0.00650000	       -117.41558800	        622.63602600	         -3.84705100	          0.27223200	          0.00600000	         -0.18228900	          0.00000000	         -0.71379400	          0.00000000	          0.00000000	          0.00000000	          0.00000000	          0.79971700	          0.00000000	         -0.21190000	          0.00000000	          0.00000000	          0.00000000	
          0.00700000	       -117.57098900	        623.45202800	         -4.01140700	          0.27241200	          0.00600000	         -0.18223000	          0.00000000	         -0.70510700	          0.00000000	          0.00000000	          0.00000000	          0.00000000	          0.79971700	          0.00000000	         -0.21190000	          0.00000000	          0.00000000	          0.00000000	
          0.00750000	       -117.72586300	        624.27074300	         -4.17581700	          0.27259300	          0.00600000	         -0.18217000	          0.00000000	         -0.69633000	          0.00000000	          0.00000000	          0.00000000	          0.00000000	          0.79971700	          0.00000000	         -0.21190000	          0.00000000	          0.00000000	          0.00000000	
          0.00800000	       -117.88018200	        625.09210400	         -4.34026100	          0.27277400	          0.00600000	         -0.18211000	          0.00000000	         -0.68746400	          0.00000000	          0.00000000	          0.00000000	          0.00000000	          0.79971700	          0.00000000	         -0.21190000	          0.00000000	          0.00000000	          0.00000000	
          0.00850000	       -118.03391500	        625.91604200	         -4.50471900	          0.27295500	          0.00600000	         -0.18205000	          0.00000000	         -0.67850800	          0.00000000	          0.00000000	          0.00000000	          0.00000000	          0.79971700	          0.00000000	         -0.21190000	          0.00000000	          0.00000000	          0.00000000	
          0.00900000	       -118.18703400	        626.74248900	         -4.66917100	          0.27313600	          0.00600000	         -0.18199000	          0.00000000	         -0.66946500	          0.00000000	          0.00000000	          0.00000000	          0.00000000	          0.79971700	          0.00000000	         -0.21190000	          0.00000000	          0.00000000	          0.00000000	
          0.00950000	       -118.33950900	        627.57137700	         -4.83359500	          0.27331800	          0.00600000	         -0.18193000	          0.00000000	         -0.66033300	          0.00000000	          0.00000000	          0.00000000	          0.00000000	          0.79971700	          0.00000000	         -0.21190000	          0.00000000	          0.00000000	          0.00000000	
          0.01000000	       -118.49131100	        628.40263700	         -4.99797300	          0.27350000	          0.00600000	         -0.18187100	          0.00000000	         -0.65111500	          0.00000000	          0.00000000	          0.00000000	          0.00000000	          0.79971700	          0.00000000	         -0.21190000	          0.00000000	          0.00000000	          0.00000000	
          0.01050000	       -118.64240900	        629.23620100	         -5.16228400	          0.27368200	          0.00600000	         -0.18181100	          0.00000000	         -0.64181100	          0.00000000	          0.00000000	          0.00000000	          0.00000000	          0.79971700	          0.00000000	         -0.21190000	          0.00000000	          0.00000000	          0.00000000	
          0.01100000	       -118.79277400	        630.07200000	         -5.32650900	          0.27386500	          0.00600000	         -0.18175100	          0.00000000	         -0.63242200	          0.00000000	          0.00000000	          0.00000000	          0.00000000	          0.79971700	          0.00000000	         -0.21190000	          0.00000000	          0.00000000	          0.00000000	
          0.01150000	       -118.94237700	        630.90996700	         -5.49062900	          0.27404800	          0.00600000	         -0.18169100	          0.00000000	         -0.62294800	          0.00000000	          0.00000000	          0.00000000	          0.00000000	          0.79971700	          0.00000000	         -0.21190000	          0.00000000	          0.00000000	          0.00000000	
          0.01200000	       -119.09119000	        631.75003300	         -5.65462400	          0.27423100	          0.00600000	         -0.18163100	          0.00000000	         -0.61339100	          0.00000000	          0.00000000	          0.00000000	          0.00000000	          0.79971700	          0.00000000	         -0.21190000	          0.00000000	          0.00000000	          0.00000000	
          0.01250000	       -119.23918200	        632.59213100	         -5.81847600	          0.27441500	          0.00600000	         -0.18157100	          0.00000000	         -0.60375100	          0.00000000	          0.00000000	          0.00000000	          0.00000000	          0.79971700	          0.00000000	         -0.21190000	          0.00000000	          0.00000000	          0.00000000	
          0.01300000	       -119.38632500	        633.43619200	         -5.98216500	          0.27459900	          0.00600000	         -0.18151100	          0.00000000	         -0.59403100	          0.00000000	          0.00000000	          0.00000000	          0.00000000	          0.79971700	          0.00000000	         -0.21190000	          0.00000000	          0.00000000	          0.00000000	
